HIERARCHY
ROOT Hips
{
	OFFSET	0.00	0.00	0.00
	CHANNELS 6 Xposition Yposition Zposition Zrotation Xrotation Yrotation
	JOINT LeftUpLeg
	{
		OFFSET	 0.126116	-0.014019	-0.065224
		CHANNELS 3 Zrotation Xrotation Yrotation
		JOINT LeftLeg
		{
			OFFSET	 0.000000	 0.000000	 0.569914
			CHANNELS 3 Zrotation Xrotation Yrotation
			JOINT LeftFoot
			{
				OFFSET	 0.000000	 0.000000	 0.544423
				CHANNELS 3 Zrotation Xrotation Yrotation
				JOINT LeftToeBase
				{
					OFFSET	 0.000000	 0.000000	 0.207117
					CHANNELS 3 Zrotation Xrotation Yrotation
					End Site
					{
						OFFSET	 0.000000	 0.000000	 0.207117
					}
				}
			}
		}
	}
	JOINT RightUpLeg
	{
		OFFSET	-0.124023	-0.008373	-0.065224
		CHANNELS 3 Zrotation Xrotation Yrotation
		JOINT RightLeg
		{
			OFFSET	 0.000000	 0.000000	 0.570047
			CHANNELS 3 Zrotation Xrotation Yrotation
			JOINT RightFoot
			{
				OFFSET	 0.000000	 0.000000	 0.544354
				CHANNELS 3 Zrotation Xrotation Yrotation
				JOINT RightToeBase
				{
					OFFSET	 0.000000	 0.000000	 0.207540
					CHANNELS 3 Zrotation Xrotation Yrotation
					End Site
					{
						OFFSET	 0.000000	 0.000000	 0.207540
					}
				}
			}
		}
	}
	JOINT Spine
	{
		OFFSET	 0.000184	-0.007763	 0.117403
		CHANNELS 3 Zrotation Xrotation Yrotation
		JOINT Spine1
		{
			OFFSET	 0.000000	 0.000000	 0.137269
			CHANNELS 3 Zrotation Xrotation Yrotation
			JOINT Spine2
			{
				OFFSET	 0.000000	 0.000000	 0.156879
				CHANNELS 3 Zrotation Xrotation Yrotation
				JOINT LeftShoulder
				{
					OFFSET	 0.080501	-0.002496	 0.160144
					CHANNELS 3 Zrotation Xrotation Yrotation
					JOINT LeftArm
					{
						OFFSET	 0.000000	 0.000000	 0.164363
						CHANNELS 3 Zrotation Xrotation Yrotation
						JOINT LeftForeArm
						{
							OFFSET	 0.000000	 0.000000	 0.364576
							CHANNELS 3 Zrotation Xrotation Yrotation
							JOINT LeftHand
							{
								OFFSET	 0.000000	 0.000000	 0.360812
								CHANNELS 3 Zrotation Xrotation Yrotation
								JOINT LeftHandIndex1
								{
									OFFSET	 0.000000	 0.000000	 0.086006
									CHANNELS 3 Zrotation Xrotation Yrotation
									JOINT LeftHandIndex2
									{
										OFFSET	 0.000000	 0.000000	 0.047236
										CHANNELS 3 Zrotation Xrotation Yrotation
										JOINT LeftHandIndex3
										{
											OFFSET	-0.004284	-0.000551	 0.038166
											CHANNELS 3 Zrotation Xrotation Yrotation
											End Site
											{
												OFFSET	-0.004284	-0.000551	 0.038166
											}
										}
									}
								}
							}
						}
					}
				}
				JOINT Neck
				{
					OFFSET	 0.000000	 0.000000	 0.176489
					CHANNELS 3 Zrotation Xrotation Yrotation
					JOINT Head
					{
						OFFSET	 0.000000	-0.001747	 0.077940
						CHANNELS 3 Zrotation Xrotation Yrotation
						End Site
						{
							OFFSET	 0.000000	-0.001747	 0.077940
						}
					}
				}
				JOINT RightShoulder
				{
					OFFSET	-0.080363	 0.000306	 0.159706
					CHANNELS 3 Zrotation Xrotation Yrotation
					JOINT RightArm
					{
						OFFSET	 0.000000	 0.000000	 0.164196
						CHANNELS 3 Zrotation Xrotation Yrotation
						JOINT RightForeArm
						{
							OFFSET	 0.000000	 0.000000	 0.365611
							CHANNELS 3 Zrotation Xrotation Yrotation
							JOINT RightHand
							{
								OFFSET	 0.000000	 0.000000	 0.360648
								CHANNELS 3 Zrotation Xrotation Yrotation
								JOINT RightHandIndex1
								{
									OFFSET	 0.000000	 0.000000	 0.069977
									CHANNELS 3 Zrotation Xrotation Yrotation
									JOINT RightHandIndex2
									{
										OFFSET	 0.000000	 0.000000	 0.052305
										CHANNELS 3 Zrotation Xrotation Yrotation
										JOINT RightHandIndex3
										{
											OFFSET	 0.009002	-0.000782	 0.042196
											CHANNELS 3 Zrotation Xrotation Yrotation
											End Site
											{
												OFFSET	 0.009002	-0.000782	 0.042196
											}
										}
									}
								}
							}
						}
					}
				}
			}
		}
	}
}
MOTION
Frames:    7
Frame Time: 0.03333334
-0.111760	-3.531210	 1.044727	-7.140572	 7.586461	 1.585666	 4.585070	-20.226760	 174.485400	-1.083231	-38.366870	 0.217550	 0.173968	 83.891920	-0.137989	-2.386002	 28.414610	 0.000827	-2.703622	-21.039410	-178.895100	-0.504331	-39.303120	-0.415173	-0.420418	 84.781390	 0.158820	 2.407584	 18.236070	-0.207897	-0.098279	 8.704313	-0.314642	 0.331521	 6.554862	-2.225441	 0.590281	 4.329690	 0.016761	-111.872100	 89.280720	-157.289800	 50.447310	 58.801640	-72.369430	-4.498086	-3.604613	-19.607240	 4.139755	-9.896179	-5.324742	-3.812334	 37.924440	-2.927599	-2.450526	 36.184240	 0.754587	-1.378229	 35.397820	-2.634230	 0.424594	 2.363458	-0.614022	 0.696673	 7.330678	-0.144015	 94.952680	 86.977350	 171.293200	-44.771560	 68.554560	 62.068440	-3.160361	-11.671750	 24.793510	-21.014400	-10.819800	 9.661938	 6.437017	 35.671460	-0.771858	 2.830251	 35.756010	-7.813440	-2.350882	 35.473990	 5.254307
-0.111169	-3.528682	 1.038127	-7.150833	 8.016049	 1.693352	 4.522536	-22.020760	 174.190400	-1.647985	-39.955530	-0.195559	 0.066037	 84.611510	-0.536934	-2.385737	 28.473380	-0.000444	-2.486184	-22.900110	-178.752700	-0.120795	-40.867110	-0.004032	-0.186442	 85.538100	 0.425102	 2.407680	 17.346710	-0.225295	-0.113496	 9.036792	-0.377646	 0.349473	 6.966221	-2.355263	 0.626375	 4.639047	 0.016091	-115.600400	 89.397040	-153.630300	 56.141190	 60.044030	-78.295100	-3.674191	-4.417985	-20.724510	 5.965402	-10.060720	-5.415329	-3.812334	 37.924440	-2.927599	-2.450526	 36.184240	 0.754587	-1.378229	 35.397820	-2.634230	 0.458756	 2.659224	-0.639401	 0.729458	 7.609363	-0.176308	 94.723430	 86.913640	 171.582400	-53.515760	 70.339310	 71.699630	-3.220317	-13.013570	 25.779750	-22.813290	-10.971990	 9.748819	 6.437017	 35.671460	-0.771858	 2.830251	 35.756010	-7.813440	-2.350882	 35.473990	 5.254307
-0.110747	-3.528352	 1.042465	-7.163395	 8.047965	 1.743882	 4.532655	-22.161520	 174.162000	-1.682827	-40.238840	-0.219552	 0.144579	 84.707870	-0.640631	-2.385736	 28.473590	-0.000452	-2.465942	-23.048710	-178.761000	-0.113474	-41.075940	 0.017430	-0.302270	 85.621270	 0.567290	 2.407692	 17.493400	-0.222433	-0.117367	 9.079592	-0.422351	 0.346459	 6.936121	-2.375474	 0.623028	 4.597713	 0.016230	-115.681500	 89.396390	-153.537700	 56.010810	 59.727890	-78.110300	-3.651177	-4.340868	-20.956290	 5.654033	-10.083600	-5.417621	-3.812334	 37.924440	-2.927599	-2.450526	 36.184240	 0.754587	-1.378229	 35.397820	-2.634230	 0.455118	 2.613929	-0.621598	 0.729492	 7.574950	-0.193880	 94.718900	 86.902880	 171.573700	-53.459270	 70.100970	 71.771820	-3.209815	-12.974820	 25.904580	-22.632610	-10.996380	 9.750109	 6.437017	 35.671460	-0.771858	 2.830251	 35.756010	-7.813440	-2.350882	 35.473990	 5.254307
-0.110414	-3.527896	 1.041710	-7.176785	 8.049928	 1.787518	 4.506225	-22.327740	 174.120600	-1.733424	-40.545990	-0.275999	 0.015581	 84.807790	-0.567826	-2.385631	 28.497920	-0.000970	-2.453644	-23.204610	-178.767600	-0.090055	-41.315800	 0.045914	-0.420676	 85.705860	 0.718875	 2.407680	 17.681480	-0.218764	-0.118702	 9.133162	-0.460628	 0.345383	 6.905492	-2.394399	 0.617831	 4.552769	 0.016338	-115.601700	 89.391230	-153.602900	 55.858730	 59.333960	-77.951830	-3.647126	-4.236685	-21.212320	 5.264748	-10.118910	-5.420790	-3.812334	 37.924440	-2.927599	-2.450526	 36.184240	 0.754587	-1.378229	 35.397820	-2.634230	 0.447643	 2.544171	-0.598532	 0.729805	 7.557631	-0.231790	 94.720020	 86.895250	 171.560000	-53.370760	 69.817650	 71.834950	-3.220539	-12.961120	 26.087330	-22.451640	-11.032840	 9.752059	 6.437017	 35.671460	-0.771858	 2.830251	 35.756010	-7.813440	-2.350882	 35.473990	 5.254307
-0.110003	-3.527223	 1.040730	-7.194482	 8.038840	 1.817768	 4.502293	-22.572220	 174.087800	-1.754938	-40.906590	-0.300057	 0.110331	 84.919590	-0.684391	-2.385373	 28.556350	-0.002239	-2.436638	-23.391410	-178.765600	-0.075474	-41.611470	 0.073471	-0.554370	 85.799710	 0.882975	 2.407665	 17.836530	-0.215725	-0.115602	 9.203495	-0.490372	 0.346136	 6.870102	-2.411068	 0.610707	 4.499531	 0.016434	-115.383600	 89.382290	-153.799900	 55.647560	 58.882260	-77.761830	-3.665589	-4.112074	-21.519640	 4.808670	-10.167680	-5.424951	-3.812334	 37.924440	-2.927599	-2.450526	 36.184240	 0.754587	-1.378229	 35.397820	-2.634230	 0.438355	 2.446903	-0.581146	 0.727184	 7.551731	-0.278047	 94.726860	 86.888760	 171.538500	-53.223500	 69.477190	 71.869260	-3.246017	-12.971150	 26.341620	-22.257530	-11.084640	 9.755040	 6.437017	 35.671460	-0.771858	 2.830251	 35.756010	-7.813440	-2.350882	 35.473990	 5.254307
-0.109423	-3.526326	 1.039550	-7.225560	 8.034275	 1.829963	 4.517283	-22.892750	 174.063200	-1.788407	-41.318360	-0.320277	 0.215031	 85.042980	-0.804380	-2.385199	 28.594700	-0.003065	-2.424817	-23.619100	-178.738400	-0.061661	-41.963610	 0.100357	-0.700701	 85.902220	 1.057058	 2.407640	 17.984070	-0.212838	-0.106572	 9.291415	-0.507897	 0.348931	 6.828798	-2.422213	 0.599988	 4.438087	 0.016467	-115.062600	 89.367280	-154.090700	 55.372250	 58.420060	-77.565090	-3.640664	-4.015935	-21.874780	 4.420235	-10.229910	-5.429462	-3.812334	 37.924440	-2.927599	-2.450526	 36.184240	 0.754587	-1.378229	 35.397820	-2.634230	 0.427304	 2.326804	-0.570947	 0.718056	 7.552770	-0.303225	 94.738630	 86.882600	 171.508700	-52.999890	 69.098180	 71.848460	-3.277447	-13.005230	 26.662320	-22.056970	-11.151490	 9.759187	 6.437017	 35.671460	-0.771858	 2.830251	 35.756010	-7.813440	-2.350882	 35.473990	 5.254307
-0.108818	-3.525233	 1.038157	-7.269574	 8.051185	 1.838415	 4.548230	-23.229210	 174.041100	-1.825737	-41.794700	-0.335316	 0.332322	 85.181950	-0.928843	-2.385102	 28.615640	-0.003522	-2.414732	-23.905660	-178.705200	-0.053354	-42.385480	 0.124728	-0.862325	 86.016410	 1.241370	 2.407608	 18.141240	-0.209753	-0.095799	 9.400691	-0.518672	 0.349526	 6.778679	-2.427941	 0.583731	 4.366059	 0.016389	-114.678200	 89.347780	-154.433000	 55.009900	 57.990810	-77.354880	-3.495937	-4.003277	-22.287910	 4.238039	-10.307660	-5.433637	-3.812334	 37.924440	-2.927599	-2.450526	 36.184240	 0.754587	-1.378229	 35.397820	-2.634230	 0.413043	 2.185703	-0.564071	 0.700917	 7.554561	-0.303215	 94.755640	 86.875010	 171.468000	-52.701330	 68.679830	 71.792560	-3.305313	-13.063330	 27.052880	-21.850030	-11.242230	 9.756609	 6.437017	 35.671460	-0.771858	 2.830251	 35.756010	-7.813440	-2.350882	 35.473990	 5.254307
